<?xml version="1.0" standalone="no"?>
<!DOCTYPE svg PUBLIC "-//W3C//DTD SVG 20010904//EN"
 "http://www.w3.org/TR/2001/REC-SVG-20010904/DTD/svg10.dtd">
<svg version="1.0" xmlns="http://www.w3.org/2000/svg"
 width="1024.000000pt" height="1024.000000pt" viewBox="0 0 1024.000000 1024.000000"
 preserveAspectRatio="xMidYMid meet">
<metadata>
Created by potrace 1.14, written by Peter Selinger 2001-2017
</metadata>
<g transform="translate(0.000000,1024.000000) scale(0.100000,-0.100000)"
fill="#000000" stroke="none">
<path d="M0 5120 l0 -5120 5120 0 5120 0 0 5120 0 5120 -5120 0 -5120 0 0
-5120z m8191 -4191 c26 -13 32 -32 69 -195 18 -74 38 -151 46 -170 14 -33 13
-35 -8 -43 -41 -15 -62 2 -79 65 l-16 59 -59 -3 c-32 -1 -62 -8 -66 -15 -4 -7
-16 -36 -25 -64 -17 -56 -26 -61 -56 -38 -23 17 -22 21 55 183 73 153 90 199
77 207 -14 9 0 25 22 25 11 0 29 -5 40 -11z m487 -39 c13 -13 22 -33 22 -51 0
-29 2 -30 30 -24 25 5 30 3 30 -12 0 -25 -19 -43 -46 -43 -16 0 -23 -8 -28
-32 -13 -63 -20 -124 -19 -175 0 -39 -3 -53 -13 -53 -18 0 -54 36 -55 55 -1 8
-2 21 -3 28 -2 15 10 104 19 146 6 30 6 30 -23 20 -16 -5 -34 -21 -40 -34 -8
-17 -20 -25 -36 -25 -23 0 -24 3 -19 38 l6 37 -22 -19 c-27 -25 -51 -105 -51
-173 0 -49 -2 -53 -24 -53 -44 0 -58 25 -49 89 4 31 8 93 8 138 0 88 6 97 43
63 20 -19 26 -37 23 -65 0 -5 7 1 17 15 30 44 51 60 77 60 14 0 28 -6 31 -13
4 -11 12 -11 39 -3 33 10 35 13 35 58 0 54 12 61 48 28z m347 -82 c-2 -24 -7
-89 -10 -145 -10 -191 -63 -291 -161 -306 -71 -11 -132 49 -100 99 16 23 53
41 64 29 4 -3 5 -21 4 -40 -4 -38 9 -50 44 -41 30 8 59 66 69 139 l7 47 -35
-35 c-39 -39 -78 -46 -114 -20 -57 40 -47 167 18 233 33 33 85 55 121 50 30
-4 34 -25 6 -33 -56 -17 -101 -92 -96 -158 3 -37 6 -42 30 -45 23 -3 30 3 47
35 11 22 25 68 31 103 16 89 37 125 72 129 4 1 6 -18 3 -41z m293 -1 c9 -8 11
-22 6 -46 -3 -20 -9 -85 -13 -144 l-6 -109 -27 21 c-14 12 -30 35 -33 52 l-7
31 -25 -37 c-42 -62 -101 -68 -124 -13 -9 23 -10 50 -1 118 6 49 9 101 6 115
-4 21 -1 25 20 25 13 0 34 -8 47 -19 22 -18 23 -21 11 -83 -22 -119 -13 -159
27 -117 29 31 44 84 45 154 1 33 5 63 10 66 10 8 46 0 64 -14z m119 8 c12 -8
25 -29 28 -47 7 -28 8 -29 18 -12 43 81 117 87 117 9 0 -41 -25 -75 -55 -75
-22 0 -23 3 -16 23 12 30 -1 54 -17 34 -25 -30 -43 -93 -46 -156 -2 -60 -5
-66 -25 -69 -35 -5 -61 25 -56 62 3 17 8 56 13 86 4 30 7 79 5 108 -4 56 1 60
34 37z m414 -11 c9 -11 9 -35 -1 -104 -7 -49 -10 -112 -7 -140 l6 -50 -28 15
c-31 16 -41 33 -41 73 l0 27 -19 -31 c-21 -34 -67 -74 -86 -74 -7 0 -23 9 -36
19 -22 18 -23 25 -20 93 2 40 4 99 5 131 l1 59 34 -6 c19 -3 38 -11 43 -18 9
-13 6 -60 -8 -145 -8 -51 -1 -75 21 -67 28 11 58 85 63 159 3 39 9 73 15 76
13 9 44 0 58 -17z"/>
<path d="M8146 785 c-17 -38 -29 -67 -37 -90 -2 -6 16 -10 42 -10 l46 -1 -14
61 c-7 33 -15 65 -17 70 -2 6 -11 -8 -20 -30z"/>
</g>
</svg>
